#!OML:ASF E:/inclinewalkrobotboard/Project1/Captureday1/Session1/subject1.ASF
:FULLY-SPECIFIED
:DEGREES
101
root 0 0 0 -2.517066949754086 -5.668763952278493 -7.728836095942773
lowerback 11.607445202139296 2.0571931458606554 6.507418114086272
upperback 1.2265624540261229 3.6863265558013465 2.5863147676282514
thorax -4.989955012402251 1.6979096583304203 -1.4643523321313778
lowerneck -17.09319016298395 -3.5999970143162074 -2.1440536041112193
upperneck 22.30211138118988 -4.579881583216799 0.7780463108264899
head 10.01984754995835 -2.214301299966656 -0.009980767661241674
rclavicle -2.662049459004331E-15 2.640429513275212E-15
rhumerus -31.901758709111455 -16.86067434115863 -82.32120067056745
rradius 22.0640208904789
rwrist 7.461369627623145
rhand -18.435714697480933 28.111929029597725
rfingers 7.1250200000000214
rthumb 7.867186513509663 -1.6747500549591479
lclavicle -6.148043584963678E-15 2.1771327720822262E-15
lhumerus -30.611035875917505 -0.34328093558297224 86.20659655785853
lradius 25.172947453604955
lwrist 5.7329035522887075
lhand -27.8634221813002 26.35521030302329
lfingers 7.125020000000046
lthumb -1.2553245674841733 56.39413528856535
rfemur -0.4596315650874354 8.44412663490181 35.12043589296703
rtibia 28.371779896991168
rfoot -18.549230608416636 -6.143845882586218
rtoes 6.211718951110079
lfemur -30.960127625574138 1.5865014331403096 -9.69125378947433
ltibia 48.74444285346134
lfoot -1.419468657601282 -2.3064551635498085
ltoes -10.116112606785013
102
root 0 0 0 -2.259663181876326 -5.976293395495932 -7.305491244282862
lowerback 11.786465996942745 2.3373679287467817 6.473249343877552
upperback 1.4969294108150772 3.995070115494755 2.11330187069112
thorax -4.818973308578792 1.8451329978827458 -1.9872941195757363
lowerneck -17.101210178087374 -3.5492591505344455 -2.155322646377564
upperneck 21.71376405810954 -4.559437140977501 0.834726019757974
head 9.787016969032226 -2.1942397685231585 0.02517785193663369
rclavicle -3.312735354911279E-15 1.7241081679583912E-15
rhumerus -29.411028639960957 -13.559600142617057 -82.49544310966589
rradius 26.840759075014397
rwrist 7.818901316532249
rhand -19.394750108549317 29.744306461156633
rfingers 7.125020000000015
rthumb 6.944000941060819 -0.1539111907123214
lclavicle -6.91268108381901E-15 1.1221613797864004E-15
lhumerus -30.332623428951777 -0.2804555242989505 86.34222810477536
lradius 24.819697116557318
lwrist 5.564968951688645
lhand -27.93840590851266 26.434932426104236
lfingers 7.125020000000046
lthumb -1.327360690019356 56.47999518495989
rfemur 0.3289896683636888 8.374721069485638 35.31273159429472
rtibia 28.986350418824173
rfoot -19.20899783835337 -6.456967657522762
rtoes 2.6245980689564012
lfemur -31.005425359607603 -0.831501543587458 -10.0914444078787
ltibia 33.80051522753478
lfoot -6.055847974468172 2.9546420407704734
ltoes -10.43970570128075
103
root 0 0 0 -2.124689355884877 -5.9881942244159765 -6.967550465908116
lowerback 11.7711037385233 2.4439325144766864 6.3418205977542765
upperback 1.5575128857142844 4.081736740455003 1.830680742229243
thorax -4.759872796362474 1.8888464276772456 -2.222251481713207
lowerneck -17.002563981644386 -3.550215619855116 -2.1617927297317006
upperneck 21.52874091932874 -4.612217167099049 0.8976174628427707
head 9.66743265911093 -2.2077959815463912 0.04570991456910481
rclavicle -3.5157917635782186E-15 1.6095062660650647E-15
rhumerus -28.740320180167775 -13.148797158563099 -82.55337866938596
rradius 28.46090308944955
rwrist 8.247970767322382
rhand -19.880227515742714 29.92721258177741
rfingers 7.125020000000009
rthumb 6.476497049894912 -0.04228917082927097
lclavicle -7.25790319528676E-15 8.91566616906054E-16
lhumerus -30.379098949453766 0.03050112848031719 86.0246463994871
lradius 24.485733629283153
lwrist 5.347349982459228
lhand -27.992693481937344 26.57794078891415
lfingers 7.125020000000046
lthumb -1.383973780598513 56.6230047253191
rfemur 0.20010206643971618 8.060648801691977 34.70568441453092
rtibia 29.939786711489145
rfoot -18.524768808791226 -6.410660886506356
rtoes 0.6703257895235428
lfemur -29.20561043447338 -2.2814386245565452 -11.673095305511007
ltibia 27.077129251597967
lfoot -7.724563851860323 4.425189205358558
ltoes -6.804500545536229
104
root 0 0 0 -2.0884506260511353 -5.974151142001073 -6.597432037501846
lowerback 11.780298231528182 2.521142178649283 6.148849735468348
upperback 1.6155168945179532 4.128918849398547 1.5848487264892857
thorax -4.715495874974966 1.9144510255174 -2.3761130309958136
lowerneck -16.87694786413166 -3.567511905022976 -2.203407271015651
upperneck 21.21227815340925 -4.678862585586394 1.0074427192536415
head 9.49353709450538 -2.22906232485717 0.08609955881603806
rclavicle -3.4348114811327617E-15 1.7069985218937511E-15
rhumerus -28.690869510523548 -13.713962761299534 -82.59954427168304
rradius 28.858243051399704
rwrist 9.014857573031605
rhand -20.182288900551264 29.758253611743903
rfingers 7.125020000000002
rthumb 6.1853704360965205 -0.26576057969011657
lclavicle -7.415866594360269E-15 9.322469507731561E-16
lhumerus -30.591452978554614 0.5297964903271746 85.55584872251713
lradius 24.052914600449256
lwrist 5.037933743497172
lhand -28.016680433983332 26.714769327379805
lfingers 7.125020000000046
lthumb -1.4106220374095013 56.75287219845235
rfemur 0.5054846295214386 7.483768789913691 32.49546685683127
rtibia 28.53138017064957
rfoot -16.944782986164007 -5.831992946954231
rtoes -0.7967811114300669
lfemur -26.79457003002932 -3.161213963558148 -13.558326624639605
ltibia 23.692088279714348
lfoot -8.32080042301089 4.414590505686391
ltoes -2.6325659899235063
105
root 0 0 0 -2.1544774112691005 -5.921204857591603 -6.183204271985984
lowerback 11.765929678313224 2.578034873990829 5.883737421408656
upperback 1.6922664580397024 4.146640632419684 1.3667323054626004
thorax -4.6348454810987425 1.9269630533029616 -2.452607069693296
lowerneck -16.739925318720086 -3.5961377022073746 -2.2964031044139848
upperneck 20.73238439881998 -4.752969822606681 1.1950924498808
head 9.259877383340964 -2.253799969093898 0.16026069723523256
rclavicle -2.9722077179679277E-15 1.7068895115156737E-15
rhumerus -28.919771092504792 -14.697243436491956 -82.61503545683043
rradius 28.58449274434571
rwrist 9.974390911880263
rhand -20.3206029691141 29.3983631590271
rfingers 7.1250199999999975
rthumb 6.051805624467778 -0.6579700747449309
lclavicle -7.103867661131207E-15 9.244664077749264E-16
lhumerus -31.009672301644017 1.1836763357234446 84.99964347877402
lradius 23.561608865918885
lwrist 4.651545413603248
lhand -27.98324964660302 26.807741391463
lfingers 7.125020000000046
lthumb -1.3799171861611192 56.83413492046948
rfemur 0.7517927719404875 6.700643326303114 29.675476027878226
rtibia 27.34816413532679
rfoot -14.471607975048618 -4.912126355197451
rtoes -1.433976806180252
lfemur -24.63365667496076 -3.6236531773050524 -14.862507251666344
ltibia 22.2135474740424
lfoot -8.661640480065154 4.110675168783204
ltoes -0.4485862903258955
106
root 0 0 0 -2.1550666437433703 -5.467222183325664 -5.259178983575468
lowerback 11.092625826827428 2.5672070460793295 4.959270804968155
upperback 1.4465285839409863 4.0007086510521495 1.061573919783711
thorax -4.521985985832163 1.8727859984802329 -2.218207104594984
lowerneck -16.5832950404229 -3.6046141936145526 -2.4196962469699423
upperneck 20.997669432043615 -4.865407554535869 1.615898845336918
head 9.291733011193783 -2.2649903265316285 0.31011722863819147
rclavicle -1.2660367521765242E-15 1.7072976096360393E-15
rhumerus -29.477150126944423 -16.7862374389109 -82.02228155927087
rradius 27.822811033158484
rwrist 10.61578068211432
rhand -20.13593845788327 27.86513709630465
rfingers 7.125020000000003
rthumb 6.225720268531789 -2.1676149813475902
lclavicle -5.936852216246094E-15 1.3418758293420748E-15
lhumerus -33.0671471873166 3.4202621463312592 83.23753592285242
lradius 22.231519633781353
lwrist 3.236062493762313
lhand -27.49489839613021 26.506173945617928
lfingers 7.125020000000053
lthumb -0.9043848269615555 56.479015663876694
rfemur 2.8730992166092735 3.9434714753192788 19.389854479465328
rtibia 23.22762982170925
rfoot -5.927361965919848 -2.0731822053884366
rtoes -0.7772921471496439
lfemur -19.57059748599853 -4.049067040137125 -16.266229661027005
ltibia 20.005901635638857
lfoot -11.29121875070022 4.778808111244583
ltoes -4.356463436788147
107
root 0 0 0 -2.729157311009992 -5.214171339086023 -4.0837917986740395
lowerback 9.2511262440254 2.4255279550884286 3.6993100288934144
upperback 0.5399242999929296 3.653907601283188 0.8196274292613241
thorax -4.472822809589769 1.7285731604200343 -1.6832196381612934
lowerneck -17.144456068439034 -3.4667306869752026 -2.4413422765206136
upperneck 22.119990449703188 -4.78488214306275 1.8015182306407929
head 9.75133696373414 -2.178427952269063 0.3694058169374601
rclavicle -1.7445448976441786E-15 2.19488514916932E-15
rhumerus -29.610160101297932 -18.710303791698777 -81.04796589547624
rradius 27.476686678497643
rwrist 10.967151023794507
rhand -19.759607366601784 26.11008570444288
rfingers 7.125020000000011
rthumb 6.585212337335025 -3.8818364886587986
lclavicle -5.624391838994171E-15 1.788877517536429E-15
lhumerus -35.701430495577306 5.630722074532542 81.31068734928967
lradius 21.38838824489101
lwrist 2.323849689694793
lhand -27.04552995946586 26.33533122640198
lfingers 7.125020000000046
lthumb -0.46272755205789196 56.30560447698417
rfemur 0.3400876038122922 1.4204757475652634 13.078542422469347
rtibia 28.6381009931874
rfoot 2.373488108817007 0.03172826937928708
rtoes 2.961063750359554
lfemur -14.62500463081501 -4.251846687040991 -17.723756836067615
ltibia 20.178835198024494
lfoot -12.292627492238072 4.071044885443683
ltoes -6.257287350554659
108
root 0 0 0 -5.279026407544963 -4.625045544245252 0.1001757765160951
lowerback 10.243164993153682 1.5061761082894045 -0.4935296355633716
upperback 0.8299414992205432 1.943473290573782 0.2961353973346047
thorax -4.79846655866439 0.9675124826625334 0.39576831189497597
lowerneck -17.51125476238672 -3.348269783246879 -2.367170471298485
upperneck 18.612891829108783 -4.486949163826734 1.5949452291676651
head 8.688233666149298 -2.0759207449397077 0.3464147810440689
rclavicle -2.4141435901213473E-15 1.9716184876968044E-15
rhumerus -30.944962169466283 -20.55043330969052 -81.35615511904756
rradius 25.107572001136482
rwrist 12.142455039380824
rhand -19.758608990436002 26.299531681572198
rfingers 7.125020000000004
rthumb 6.593336298430127 -3.715466216256452
lclavicle -5.945500572931762E-15 1.3478806617611298E-15
lhumerus -35.9251158429512 6.223226918130508 80.73816359358547
lradius 20.722543722816713
lwrist 2.2340129913368987
lhand -27.311060665226062 27.249452505185452
lfingers 7.12502000000004
lthumb -0.7238700196614909 57.230125411292406
rfemur -17.586663691775716 0.534628715673164 18.391051117708663
rtibia 58.37315664746099
rfoot 6.981717026634723 -3.5645793648619475
rtoes 9.153431016120072
lfemur -4.153215348324624 -4.787442034113115 -23.28856753296932
ltibia 18.540076010499703
lfoot -13.656460791066305 1.7880222124460836
ltoes -2.02649193887288
